Coordinates
version=1
nRows=17
nColumns=34
inDegrees=yes

Units are S.I. units (second, meters, Newtons, ...)
If the header above contains a line with 'inDegrees', this indicates whether rotational values are in degrees (yes) or radians (no).

endheader
time	pelvis_tilt	pelvis_list	pelvis_rotation	pelvis_tx	pelvis_ty	pelvis_tz	hip_flexion_r	hip_adduction_r	hip_rotation_r	knee_angle_r	ankle_angle_r	subtalar_angle_r	mtp_angle_r	hip_flexion_l	hip_adduction_l	hip_rotation_l	knee_angle_l	ankle_angle_l	subtalar_angle_l	mtp_angle_l	lumbar_extension	lumbar_bending	lumbar_rotation	arm_flex_r	arm_add_r	arm_rot_r	elbow_flex_r	pro_sup_r	arm_flex_l	arm_add_l	arm_rot_l	elbow_flex_l	pro_sup_l
      1.88333330	     -6.42872144	     -0.81610214	      1.74412529	      1.64846184	      0.78892607	     -0.07927996	     26.48564777	     -8.15048766	     -8.27239678	     53.70233666	     31.28149152	     -6.23626136	      0.00000000	     27.83988234	    -10.06264204	     -5.46388174	     55.71683345	     32.81005203	      5.58759970	      0.00000000	     -5.19980962	      2.77514692	      1.72768630	     40.87052049	     -6.36915879	     17.04123689	    123.30160203	    100.93715867	     60.36153666	     -2.02154555	     25.62971116	    109.03946707	     90.19406271
      1.90000000	     -6.43811895	     -0.86005460	      2.42392238	      1.65470175	      0.79951987	     -0.07984931	     24.30961071	     -8.10906831	     -9.46716224	     50.51506323	     30.20844378	     -5.78454018	      0.00000000	     26.08501304	     -9.91135553	     -5.86515105	     52.66148715	     31.51518346	      6.68540106	      0.00000000	     -4.40355044	      2.66978199	      1.68563779	     43.26452246	     -6.44313422	     16.06607337	    123.88870996	    101.11981487	     63.51141603	     -2.22178471	     25.93555311	    109.40367289	     90.37867599
      1.91666670	     -6.32243035	     -0.85093608	      2.92596458	      1.66026377	      0.81196233	     -0.07985436	     21.91028958	     -7.96093933	    -10.54266665	     46.96135430	     28.76324527	     -5.28131657	      0.00000000	     23.88127264	     -9.83150499	     -6.68209421	     48.96062490	     29.77627719	      7.96153645	      0.00000000	     -3.70909522	      2.31368178	      2.16626990	     45.91044085	     -6.78877248	     14.28421475	    124.25512797	    101.34401254	     67.38015756	     -2.10655482	     26.66093091	    109.00998145	     90.68106193
      1.93333330	     -6.28788838	     -0.82045998	      3.51903742	      1.66519460	      0.82488569	     -0.07979161	     19.45116621	     -7.76416744	    -11.72125183	     42.98789681	     26.95177706	     -4.67730959	      0.00000000	     21.67807813	     -9.67792043	     -7.53221657	     44.83147150	     27.49703160	      9.40315173	      0.00000000	     -2.81486913	      1.63741666	      3.02818557	     48.37819665	     -7.71080958	     11.97241672	    124.73541100	    101.63166275	     71.47565738	     -1.35615567	     27.81210439	    107.76409060	     91.28325488
      1.95000000	     -6.32375284	     -0.89076626	      4.24121788	      1.66941170	      0.83624352	     -0.07993325	     17.13637373	     -7.41247388	    -12.91015946	     38.91442264	     24.58702395	     -4.28492110	      0.00000000	     19.76788048	     -9.51143778	     -8.05047415	     40.79483160	     24.86209477	     10.51796114	      0.00000000	     -1.61860463	      1.32770256	      3.29116975	     52.01592030	     -8.29321887	     10.46950209	    123.23306555	    101.57772984	     75.26252983	     -1.44237465	     28.31452616	    106.98054591	     91.50462367
      1.96666670	     -6.32361735	     -0.86835513	      4.93430104	      1.67287488	      0.84666130	     -0.07996711	     15.05688970	     -7.08240123	    -13.86242508	     35.08632049	     22.05555501	     -3.98881655	      0.00000000	     17.99634045	     -9.27965483	     -8.58363283	     37.00756786	     22.07742805	     11.44165924	      0.00000000	     -0.54967897	      0.83531791	      3.70439541	     56.91148872	     -9.34707957	      9.14074481	    121.00170864	    101.40777569	     79.72960591	     -1.61078424	     28.91953142	    105.74663337	     91.77297976
      1.98333330	     -6.43030153	     -0.86074559	      5.68920913	      1.67601933	      0.85538546	     -0.08026029	     13.31228449	     -6.73079903	    -14.66375331	     31.56184533	     19.38392840	     -3.90103982	      0.00000000	     16.62467875	     -9.01144493	     -8.85861221	     33.67711391	     19.31322780	     12.05999368	      0.00000000	      0.57907804	      0.31235418	      4.14924279	     63.18326041	    -10.66606099	      8.05587899	    117.20423102	    101.13582810	     84.59453489	     -1.67257758	     29.28476440	    103.99960315	     92.04968211
      2.00000000	     -6.58624777	     -0.80115951	      6.36410316	      1.67899343	      0.86488369	     -0.08059224	     11.81145634	     -6.42252189	    -15.25995698	     28.31527998	     16.56163607	     -3.93680113	      0.00000000	     15.41264246	     -8.61644804	     -8.92413485	     30.50670703	     16.37090019	     12.45322821	      0.00000000	      1.53098313	     -0.28932699	      4.76967831	     70.93980025	    -12.04491832	      7.27499016	    110.99798550	    100.80884585	     89.53878862	     -1.53297585	     29.28766970	    101.76366121	     92.32157237
      2.01666670	     -6.55275739	     -0.71883067	      6.94489342	      1.68157911	      0.87733742	     -0.08095010	     10.17774504	     -6.13877622	    -15.88911541	     25.08907240	     13.27248520	     -3.98668430	      0.00000000	     13.92590434	     -8.16326141	     -9.00727292	     27.14616388	     13.09427193	     12.78528143	      0.00000000	      1.77461379	     -0.51062980	      4.96691442	     80.70910216	    -12.29511596	      7.98376833	    101.04152904	    100.01570183	     94.35134062	     -2.25499921	     28.36898915	    100.23391951	     92.89961462
      2.03333330	     -6.80354807	     -0.66650224	      7.27335889	      1.68366655	      0.89093967	     -0.08110832	      9.05443386	     -5.87113866	    -16.48734605	     22.04676323	      9.72660162	     -3.64185858	      0.00000000	     12.61795226	     -7.60883319	     -8.93086772	     23.50082491	      9.48295729	     12.81494658	      0.00000000	      2.06363247	     -0.94156588	      5.86066319	     90.85012976	    -12.47003914	      8.63926228	     87.70176466	     99.72370089	     99.87642623	     -1.31728496	     27.12892937	     96.92156996	     93.10355247
      2.05000000	     -7.05438979	     -0.57635176	      7.56096635	      1.68597952	      0.90212075	     -0.08118768	      8.01390401	     -5.67852307	    -17.20884545	     19.11254431	      6.06056240	     -3.07415155	      0.00000000	     11.34057687	     -7.01252541	     -8.77062492	     19.94545362	      5.86257768	     12.81360975	      0.00000000	      1.97452303	     -1.32442342	      6.85536223	    102.11547338	    -11.73438264	     10.26955347	     70.57819245	     99.73033154	    105.36791258	     -0.34620911	     25.84961435	     93.70788838	     93.04664157
      2.06666670	     -7.47995532	     -0.52088224	      7.99024658	      1.68958472	      0.90814785	     -0.08153954	      7.19477338	     -5.49716614	    -18.00587320	     16.41009000	      2.48604118	     -2.44708120	      0.00000000	     10.40620633	     -6.45911761	     -8.59692258	     16.75091870	      2.42409377	     12.77906202	      0.00000000	      1.94886377	     -1.88161117	      8.25805205	    114.22014587	    -10.52375513	     12.84177330	     50.98189003	     99.89238047	    110.66533701	      1.47023171	     24.79415280	     89.89960215	     92.68558549
      2.08333330	     -8.05975045	     -0.47783936	      8.57028915	      1.69379438	      0.91104390	     -0.08181589	      6.64354515	     -5.37896030	    -18.83853356	     14.16050203	     -0.66115636	     -1.95597011	      0.00000000	      9.89173851	     -5.94110924	     -8.29680561	     14.12413342	     -0.56103410	     12.68624482	      0.00000000	      2.03029854	     -2.53238880	      9.86884000	    125.71844658	     -8.95471047	     16.78182135	     32.83098958	     99.54174901	    115.18597789	      3.06185930	     24.30447405	     86.76237916	     92.04487328
      2.10000000	     -9.00907753	     -0.43356285	      9.19336404	      1.69732495	      0.91404101	     -0.08145932	      6.64235319	     -5.38517863	    -19.64735282	     12.36401826	     -3.29597474	     -1.54490445	      0.00000000	     10.02656760	     -5.40076984	     -7.78102006	     11.98092052	     -3.32412864	     12.32319225	      0.00000000	      2.75530841	     -3.53441058	     12.08351568	    136.18860571	     -8.83024371	     30.35453122	     18.46465997	     93.97031953	    118.83300341	      5.07355564	     24.71637091	     83.20879326	     89.90047749
      2.11666670	     -9.60966833	     -0.51771831	      9.86735794	      1.69963566	      0.91798882	     -0.07981284	      6.30906320	     -5.11205865	    -20.37522776	     10.62734512	     -5.59973779	     -1.21025977	      0.00000000	     10.10963295	     -5.18771052	     -7.13142700	     10.33829599	     -5.72810093	     12.06961484	      0.00000000	      3.02033102	     -4.28038732	     13.56126769	    144.31881294	     -7.47403657	     50.69050820	      9.25348636	     68.88241843	    122.12264088	      5.99202213	     25.54360574	     81.15665322	     86.92088442
      2.13333330	    -10.29890079	     -0.47337670	     10.36842811	      1.70191047	      0.92078280	     -0.07700462	      6.30500140	     -4.99798681	    -20.80532543	      9.31179224	     -7.37261726	     -0.74327671	      0.00000000	     10.37713132	     -4.94808045	     -6.69814003	      8.94591729	     -7.69935701	     11.97739529	      0.00000000	      3.50993269	     -5.41369916	     14.20601944	    148.90564446	     -6.57655268	     49.69039409	      7.70854649	     67.92427825	    125.27150249	      6.37223475	     26.61126215	     79.60064622	     87.14416841
      2.15000000	    -10.82829877	     -0.51350017	     10.89701512	      1.70495512	      0.92211176	     -0.07432842	      6.21848246	     -4.75456821	    -21.22874507	      8.11604676	     -9.01895315	     -0.43321591	      0.00000000	     10.60281767	     -4.88107632	     -6.22611219	      7.81005863	     -9.52342308	     11.76544301	      0.00000000	      3.89862388	     -6.13240286	     14.19856926	    152.42295958	     -5.41879170	     49.28975035	      8.43316268	     67.21609048	    128.03574801	      6.00687223	     27.31610668	     78.54198235	     87.38739535
